{"glyphs":{"0":{"ha":854,"x_min":68,"x_max":786,"o":"m 786 407 q 759 238 786 315 q 684 105 732 161 q 570 17 636 49 q 428 -14 504 -14 q 284 17 350 -14 q 170 105 218 49 q 95 238 122 161 q 68 407 68 315 q 95 576 68 499 q 170 709 122 653 q 284 797 218 765 q 428 829 350 829 q 570 797 504 829 q 684 709 636 765 q 759 576 732 653 q 786 407 786 499 m 599 407 q 586 509 599 463 q 551 589 574 556 q 497 640 528 622 q 428 658 465 658 q 357 640 389 658 q 302 589 325 622 q 267 509 279 556 q 254 407 254 463 q 267 306 254 351 q 302 226 279 260 q 357 175 325 193 q 428 157 389 157 q 497 175 465 157 q 551 226 528 193 q 586 306 574 260 q 599 407 599 351 z "},"1":{"ha":683,"x_min":60,"x_max":651,"o":"m 651 168 l 651 0 l 88 0 l 88 168 l 285 168 l 285 589 q 246 555 272 572 q 188 522 219 538 q 121 497 156 507 q 60 488 86 488 l 60 661 q 121 677 85 661 q 192 715 157 693 q 253 759 226 738 q 285 793 279 781 l 475 793 l 475 168 l 651 168 z "},"2":{"ha":790,"x_min":57,"x_max":726,"o":"m 57 0 q 67 113 57 63 q 101 207 76 164 q 168 288 126 250 q 275 361 210 325 q 374 415 331 392 q 448 457 418 438 q 493 497 478 476 q 508 543 508 517 q 475 615 508 585 q 379 644 442 644 q 318 635 346 644 q 266 611 290 626 q 222 577 242 596 q 185 538 201 558 l 65 675 q 117 717 83 694 q 195 760 150 740 q 295 794 240 781 q 413 807 350 807 q 539 790 483 807 q 633 741 594 772 q 691 666 671 710 q 711 571 711 622 q 693 485 711 522 q 647 418 675 447 q 587 367 619 389 q 524 329 554 346 q 470 299 499 315 q 414 262 442 282 q 363 218 386 242 q 328 168 340 194 l 726 168 l 726 0 l 57 0 z "},"3":{"ha":776,"x_min":40,"x_max":724,"o":"m 529 328 q 670 245 617 313 q 724 81 724 178 q 698 -37 724 15 q 625 -127 672 -90 q 511 -184 578 -164 q 363 -204 444 -204 q 174 -170 256 -204 q 40 -71 93 -136 l 146 61 q 231 -10 182 15 q 356 -35 281 -35 q 485 -1 440 -35 q 531 101 531 32 q 479 213 531 174 q 324 251 428 251 l 285 251 l 285 390 l 328 390 q 460 428 413 390 q 507 526 507 467 q 469 611 507 583 q 368 639 431 639 q 253 610 304 639 q 171 528 203 581 l 54 658 q 110 716 75 690 q 188 760 144 742 q 283 790 232 779 q 389 800 335 800 q 518 782 460 800 q 618 732 576 764 q 683 655 660 700 q 706 554 706 610 q 693 475 706 513 q 657 407 681 438 q 601 356 633 376 q 529 328 568 335 z "},"4":{"ha":785,"x_min":29,"x_max":743,"o":"m 435 -176 l 435 31 l 29 31 l 29 196 l 493 793 l 621 793 l 621 197 l 743 197 l 743 31 l 621 31 l 621 -176 l 435 -176 m 215 197 l 456 197 l 456 511 l 215 197 z "},"5":{"ha":771,"x_min":39,"x_max":726,"o":"m 401 443 q 531 420 471 443 q 634 356 590 397 q 702 256 678 314 q 726 126 726 197 q 699 -10 726 51 q 622 -115 671 -71 q 507 -183 574 -158 q 363 -207 440 -207 q 169 -161 254 -207 q 39 -36 83 -115 l 146 75 q 244 -11 186 21 q 364 -43 301 -43 q 487 2 439 -43 q 535 122 535 47 q 490 239 535 194 q 375 283 444 283 q 290 263 329 283 q 226 206 250 242 l 64 206 q 69 237 64 210 q 83 306 75 264 q 101 401 92 349 q 122 507 111 453 q 178 793 147 635 l 664 793 l 664 624 l 313 624 l 274 403 q 322 432 290 421 q 401 443 354 443 z "},"6":{"ha":843,"x_min":64,"x_max":788,"o":"m 788 329 q 760 194 788 257 q 684 85 732 132 q 570 13 636 39 q 428 -14 504 -14 q 277 17 344 -14 q 163 106 210 47 q 90 248 115 164 q 64 439 64 332 q 91 677 64 574 q 167 851 118 781 q 288 957 217 921 q 446 993 358 993 q 618 953 539 993 q 751 838 697 913 l 644 721 q 558 803 611 774 q 443 832 506 832 q 295 758 350 832 q 238 550 240 685 q 319 629 265 600 q 444 658 374 658 q 580 633 517 658 q 689 564 643 608 q 761 459 735 519 q 788 329 788 399 m 428 143 q 498 158 465 143 q 556 198 531 172 q 595 258 581 224 q 610 329 610 292 q 595 399 610 367 q 556 457 581 432 q 499 496 532 482 q 428 510 465 510 q 357 496 390 510 q 299 457 324 482 q 260 399 275 432 q 246 329 246 367 q 260 258 246 292 q 300 199 275 224 q 358 158 325 174 q 428 143 390 143 z "},"7":{"ha":797,"x_min":51,"x_max":793,"o":"m 500 640 l 51 640 l 51 810 l 793 810 l 303 -176 l 93 -176 l 500 640 z "},"8":{"ha":840,"x_min":61,"x_max":778,"o":"m 778 292 q 749 167 778 222 q 672 71 721 111 q 557 9 622 31 q 418 -12 492 -12 q 280 10 344 -12 q 167 75 215 33 q 90 174 118 117 q 61 299 61 231 q 75 376 61 340 q 111 440 89 411 q 161 492 133 469 q 217 528 189 514 q 128 603 164 553 q 92 713 92 653 q 122 830 92 779 q 199 915 151 881 q 305 968 247 950 q 419 986 363 986 q 535 969 476 986 q 641 917 593 951 q 719 831 689 882 q 749 714 749 781 q 712 603 749 654 q 622 528 675 551 q 680 490 651 513 q 730 437 708 467 q 765 371 751 407 q 778 292 778 335 m 589 303 q 574 365 589 338 q 536 412 560 393 q 482 440 513 431 q 419 450 451 450 q 356 440 386 450 q 301 410 325 429 q 264 363 278 390 q 250 303 250 336 q 265 242 250 269 q 303 196 279 215 q 358 166 326 176 q 421 156 389 156 q 484 167 454 156 q 538 197 514 178 q 575 244 561 217 q 589 303 589 271 m 281 707 q 293 656 281 678 q 326 620 306 635 q 370 598 346 606 q 419 590 394 590 q 469 598 444 590 q 515 621 494 606 q 547 658 535 636 q 560 708 560 679 q 518 790 560 760 q 419 821 476 821 q 322 790 363 821 q 281 707 281 758 z "},"9":{"ha":818,"x_min":44,"x_max":768,"o":"m 44 450 q 72 585 44 522 q 148 694 100 647 q 262 767 196 740 q 404 793 328 793 q 555 763 488 793 q 669 674 622 732 q 742 531 717 615 q 768 340 768 447 q 741 102 768 206 q 665 -72 714 -1 q 544 -178 615 -142 q 386 -214 474 -214 q 214 -174 293 -214 q 81 -58 135 -133 l 188 58 q 274 -24 221 6 q 389 -53 326 -53 q 537 21 482 -53 q 594 229 592 94 q 513 150 567 179 q 388 121 458 121 q 251 146 314 121 q 143 215 189 171 q 71 320 97 260 q 44 450 44 381 m 404 636 q 334 622 367 636 q 276 581 301 607 q 237 522 251 556 q 222 450 222 488 q 237 380 222 413 q 276 322 251 347 q 333 283 300 297 q 404 269 367 269 q 475 283 442 269 q 533 322 508 297 q 572 380 557 347 q 586 450 586 413 q 572 522 586 488 q 532 581 557 556 q 474 621 507 606 q 404 636 442 636 z "}," ":{"ha":332,"x_min":0,"x_max":0,"o":""},"Ǽ":{"ha":1363,"x_min":-19,"x_max":1311,"o":"m 863 1069 l 743 1106 l 818 1271 l 992 1271 l 863 1069 m 597 986 l 1299 986 l 1299 818 l 836 818 l 836 586 l 1224 586 l 1224 418 l 836 418 l 836 168 l 1311 168 l 1311 0 l 647 0 l 647 246 l 331 246 l 185 0 l -19 0 l 597 986 m 633 413 l 633 771 l 413 413 l 633 413 z "},"´":{"ha":354,"x_min":65,"x_max":314,"o":"m 185 813 l 65 849 l 140 1014 l 314 1014 l 185 813 z "},"Á":{"ha":938,"x_min":3,"x_max":935,"o":"m 3 0 l 392 986 l 547 986 l 935 0 l 732 0 l 642 246 l 296 246 l 206 0 l 3 0 m 469 779 l 328 381 l 607 381 l 469 779 m 518 1069 l 399 1106 l 474 1271 l 647 1271 l 518 1069 z "},"Ă":{"ha":938,"x_min":3,"x_max":935,"o":"m 3 0 l 392 986 l 547 986 l 935 0 l 732 0 l 642 246 l 296 246 l 206 0 l 3 0 m 469 779 l 328 381 l 607 381 l 469 779 m 469 1168 q 525 1197 501 1168 q 553 1271 549 1226 l 651 1271 q 638 1197 651 1231 q 600 1138 624 1163 q 542 1099 576 1113 q 469 1085 508 1085 q 396 1099 429 1085 q 339 1138 363 1113 q 301 1197 315 1163 q 288 1271 288 1231 l 388 1271 q 413 1199 388 1229 q 469 1168 438 1168 z "},"˘":{"ha":456,"x_min":46,"x_max":410,"o":"m 228 911 q 283 940 260 911 q 311 1014 307 969 l 410 1014 q 396 940 410 974 q 358 881 382 906 q 301 842 335 856 q 228 828 267 828 q 154 842 188 828 q 97 881 121 856 q 60 940 74 906 q 46 1014 46 974 l 146 1014 q 171 942 146 972 q 228 911 196 911 z "},"Â":{"ha":938,"x_min":3,"x_max":935,"o":"m 3 0 l 392 986 l 547 986 l 935 0 l 732 0 l 642 246 l 296 246 l 206 0 l 3 0 m 469 779 l 328 381 l 607 381 l 469 779 m 256 1131 l 403 1271 l 538 1271 l 685 1131 l 589 1086 l 471 1174 l 353 1086 l 256 1131 z "},"ˆ":{"ha":513,"x_min":42,"x_max":471,"o":"m 42 874 l 189 1014 l 324 1014 l 471 874 l 375 829 l 257 917 l 139 829 l 42 874 z "},"Ä":{"ha":938,"x_min":3,"x_max":935,"o":"m 3 0 l 392 986 l 547 986 l 935 0 l 732 0 l 642 246 l 296 246 l 206 0 l 3 0 m 469 779 l 328 381 l 607 381 l 469 779 m 260 1097 l 260 1263 l 414 1263 l 414 1097 l 260 1097 m 526 1097 l 526 1263 l 681 1263 l 681 1097 l 526 1097 z "},"¨":{"ha":635,"x_min":107,"x_max":528,"o":"m 107 839 l 107 1004 l 261 1004 l 261 839 l 107 839 m 374 839 l 374 1004 l 528 1004 l 528 839 l 374 839 z "},"À":{"ha":938,"x_min":3,"x_max":935,"o":"m 3 0 l 392 986 l 547 986 l 935 0 l 732 0 l 642 246 l 296 246 l 206 0 l 3 0 m 469 779 l 328 381 l 607 381 l 469 779 m 293 1272 l 465 1272 l 542 1107 l 422 1071 l 293 1272 z "},"`":{"ha":354,"x_min":65,"x_max":314,"o":"m 65 1014 l 238 1014 l 314 849 l 194 813 l 65 1014 z "},"Ā":{"ha":938,"x_min":3,"x_max":935,"o":"m 3 0 l 392 986 l 547 986 l 935 0 l 732 0 l 642 246 l 296 246 l 206 0 l 3 0 m 469 779 l 328 381 l 607 381 l 469 779 m 263 1136 l 263 1251 l 679 1251 l 679 1136 l 263 1136 z "},"¯":{"ha":582,"x_min":83,"x_max":500,"o":"m 83 879 l 83 994 l 500 994 l 500 879 l 83 879 z "},"Ą":{"ha":938,"x_min":3,"x_max":935,"o":"m 868 -272 q 758 -228 794 -261 q 721 -151 721 -194 q 833 0 721 -71 l 732 0 l 642 246 l 296 246 l 206 0 l 3 0 l 392 986 l 547 986 l 935 0 q 821 -125 821 -67 q 907 -181 821 -176 l 868 -272 m 469 779 l 328 381 l 607 381 l 469 779 z "},"˛":{"ha":403,"x_min":90,"x_max":304,"o":"m 238 -272 q 127 -228 164 -261 q 90 -151 90 -194 q 131 -59 90 -106 q 256 29 172 -12 l 304 0 q 190 -125 190 -67 q 276 -181 190 -176 l 238 -272 l 238 -272 z "},"Å":{"ha":938,"x_min":3,"x_max":935,"o":"m 3 0 l 392 986 l 547 986 l 935 0 l 732 0 l 642 246 l 296 246 l 206 0 l 3 0 m 469 779 l 328 381 l 607 381 l 469 779 m 335 1164 q 372 1243 335 1215 q 469 1271 408 1271 q 567 1243 531 1271 q 604 1164 604 1215 q 567 1085 604 1113 q 469 1057 531 1057 q 372 1085 408 1057 q 335 1164 335 1113 m 469 1214 q 430 1201 446 1214 q 414 1164 414 1188 q 430 1128 414 1143 q 469 1114 446 1114 q 509 1128 492 1114 q 526 1164 526 1142 q 510 1201 526 1188 q 469 1214 493 1214 z "},"˚":{"ha":364,"x_min":47,"x_max":317,"o":"m 47 907 q 84 986 47 958 q 182 1014 121 1014 q 280 986 243 1014 q 317 907 317 958 q 280 828 317 856 q 182 800 243 800 q 84 828 121 800 q 47 907 47 856 m 182 957 q 142 944 158 957 q 126 907 126 931 q 142 872 126 886 q 182 857 158 857 q 222 871 204 857 q 239 907 239 885 q 222 944 239 931 q 182 957 206 957 z "},"Ǻ":{"ha":938,"x_min":3,"x_max":935,"o":"m 554 1122 q 591 1087 578 1108 q 604 1036 604 1065 q 560 951 604 981 l 935 0 l 732 0 l 642 246 l 296 246 l 206 0 l 3 0 l 378 953 q 347 988 358 967 q 335 1036 335 1008 q 357 1101 335 1076 q 419 1138 379 1126 l 488 1275 l 661 1275 l 554 1122 m 469 779 l 328 381 l 607 381 l 469 779 m 469 1086 q 430 1073 446 1086 q 414 1036 414 1060 q 430 1001 414 1015 q 469 986 446 986 q 509 1000 492 986 q 526 1036 526 1014 q 510 1073 526 1060 q 469 1086 493 1086 z "},"Ã":{"ha":938,"x_min":3,"x_max":935,"o":"m 3 0 l 392 986 l 547 986 l 935 0 l 732 0 l 642 246 l 296 246 l 206 0 l 3 0 m 469 779 l 328 381 l 607 381 l 469 779 m 557 1093 q 501 1103 525 1093 q 458 1124 478 1113 q 417 1146 438 1136 q 375 1156 397 1156 q 338 1146 351 1156 q 318 1124 325 1136 q 310 1101 311 1111 q 308 1089 308 1090 l 206 1089 q 214 1131 206 1101 q 241 1191 222 1161 q 291 1244 260 1221 q 368 1267 322 1267 q 423 1256 400 1267 q 466 1234 446 1246 q 506 1212 486 1222 q 551 1201 526 1201 q 591 1211 576 1201 q 613 1233 606 1221 q 623 1257 621 1246 q 625 1271 625 1268 l 728 1271 q 719 1232 728 1261 q 691 1172 711 1203 q 638 1117 671 1142 q 557 1093 606 1093 z "},"˜":{"ha":607,"x_min":43,"x_max":565,"o":"m 394 836 q 339 846 363 836 q 295 867 315 856 q 255 889 275 879 q 213 899 235 899 q 176 889 189 899 q 156 867 163 879 q 147 844 149 854 q 146 832 146 833 l 43 832 q 51 874 43 844 q 78 934 60 904 q 128 987 97 964 q 206 1010 160 1010 q 260 999 238 1010 q 303 977 283 989 q 344 955 324 965 q 389 944 364 944 q 428 954 414 944 q 451 976 443 964 q 460 1000 458 989 q 463 1014 463 1011 l 565 1014 q 557 975 565 1004 q 528 915 549 946 q 476 860 508 885 q 394 836 443 836 z "}}}
